# xmcd CD database file
#
# Track frame offsets:
#	150
#	20831
#	38594
#	55141
#	73443
#	103417
#	118853
#	142394
#	162013
#	182182
#
# Disc length: 2764 seconds
#
# Revision: 1
# Processed by: cddbd v1.5.2PL0 Copyright (c) Steve Scherf et al.
# Submitted via: CDex 1.51
#
DISCID=9d0aca0a
DTITLE=Chris Goertzen and the Hazy Pilgrims - Devils Rawking Chair
DYEAR=2008
DGENRE=Country
TTITLE0=The Oath
TTITLE1=Lungs
TTITLE2=Lonesome, Wild and Blue
TTITLE3=Killdeer
TTITLE4=Indian Head
TTITLE5=Highway 59
TTITLE6=High and Angry
TTITLE7=F-5 Tornado Skrank
TTITLE8=Dark Eyes Dana
TTITLE9=Crowsfeet
EXTD=YEAR: 2008
EXTT0=
EXTT1=
EXTT2=
EXTT3=
EXTT4=
EXTT5=
EXTT6=
EXTT7=
EXTT8=
EXTT9=
PLAYORDER=
